<svg width="32" height="32" fill="none" xmlns="http://www.w3.org/2000/svg"><rect width="32" height="32" rx="16" fill="#171717"/><rect width="32" height="32" rx="16" fill="#171717"/><path d="M16.238 10.607c-2.4 0-3.743-.59-6.104-.624-.08-.001-.12-.094-.061-.146C11.758 8.347 15.004 8 16.133 8c.947 0 4.09.275 5.92 1.827.063.053.021.149-.062.147-2.368-.036-2.385.632-5.754.632Z" fill="#fff"/><path fill-rule="evenodd" clip-rule="evenodd" d="M12.53 22.777H5.366a.181.181 0 0 1-.162-.267c.832-1.525.533-2.6.2-3.8-.248-.887-.515-1.844-.354-3.1.43-2.422 1.59-3.634 3.93-4.216 1.215-.303 2.66-.07 4.158.17 1.038.166 2.1.337 3.128.337.768 0 1.694-.142 2.662-.29 1.521-.233 3.143-.48 4.398-.217 2.416.507 3.708 1.89 3.84 4.087.089 1.463-.16 2.497-.372 3.378-.304 1.257-.53 2.203.403 3.639a.181.181 0 0 1-.154.28h-7.34a.384.384 0 0 1-.361-.256c-.263-.732-1.184-2.79-3.224-2.79s-2.962 2.058-3.225 2.79a.387.387 0 0 1-.361.256v-.001Zm-1.047-3.43c-1.435.816-3.3.804-4.025-.808-.821-1.831-.023-4.42 2.29-5.06 2.424-.671 4.768-.344 4.68 1.422-.066 1.313-1.267 3.493-2.945 4.446Zm13.407-.808c-.724 1.612-2.59 1.624-4.025.809-1.678-.954-2.88-3.134-2.945-4.446-.088-1.766 2.256-2.094 4.68-1.423 2.312.64 3.111 3.23 2.29 5.061Z" fill="#fff"/></svg>