<svg aria-hidden="true" style="position: absolute; width: 0; height: 0; overflow: hidden;" version="1.1" xmlns="http://www.w3.org/2000/svg" xmlns:xlink="http://www.w3.org/1999/xlink">
<defs>
<symbol id="logo" viewBox="0 0 46 32">
<path d="M0.336 23.381h3.022c1.787 0 2.904 0.829 2.892 2.097-0.004 0.545 0 1.226-0.678 1.85 0.47 0 1.008 0.664 1.008 1.98 0 1.674-0.939 2.57-2.414 2.57h-3.83v-8.497zM2.19 25.202v1.542h1.464c0.541 0 0.671-0.476 0.671-0.724v-0.059c0-0.483-0.183-0.736-0.671-0.736l-1.464-0.023zM2.19 28.351v1.825h1.716c0.41 0 0.565-0.438 0.565-0.824v-0.126c0-0.582-0.266-0.864-0.756-0.864l-1.525-0.012zM8.713 28.101l-2.806-4.72h2.44l1.354 2.769 1.488-2.769h2.22l-2.72 4.72v3.776h-1.976v-3.776zM27.809 26.127c0 1.715-1.312 3.096-4.176 3.096v2.652h-2.001v-8.481h3.039c2.349 0 3.139 1.018 3.139 2.733zM23.633 27.638h0.698c0.9 0 1.607-0.524 1.607-1.511s-0.574-1.257-1.606-1.257h-0.699v2.769zM0.336 22.237v-11.119h2.831l3.244 5.949 3.421-5.949h2.83v11.119h-2.83v-5.080l-3.421 5.080-3.244-5.080v5.080h-2.831zM16.144 11.117h3.852l2.81 11.119h-2.501l-0.658-2.067h-3.243l-0.608 2.067h-2.551l2.899-11.119zM18.070 14.052l-1.275 4.072h2.455l-1.181-4.072zM32.717 11.118h7.935v2.513h-5.408v1.75h5.408v2.449h-5.408v2.084h5.408v2.322h-7.936v-11.119zM28.25 23.394h6.052v1.917h-4.125v1.334h4.125v1.869h-4.125v1.59h4.125v1.771h-6.052v-8.481zM16.106 23.394h2.938l2.144 8.481h-1.908l-0.502-1.578h-2.474l-0.465 1.577h-1.946l2.212-8.481zM17.576 25.632l-0.972 3.105h1.873l-0.9-3.105zM26.957 22.253l-3.602-0.010v-11.119l3.602-0.035c3.375 0 5.178 1.633 5.178 5.666 0 3.094-1.73 5.498-5.178 5.498zM25.835 19.848h1.122c1.576 0 2.536-1.002 2.536-3.094s-0.749-3.068-2.536-3.068h-1.122v6.161z"></path>
<path d="M35.023 25.752c0-1.323 0.948-2.284 2.483-2.415 1.28-0.11 2.447 0.353 3.332 0.941l-0.809 1.796s-0.905-0.524-1.437-0.691c-0.418-0.132-0.973-0.008-1.087 0.275s-0.093 0.572 0.276 0.756l0.099 0.049c0.204 0.1 0.511 0.253 0.859 0.465h0.006s0.748 0.403 1.332 1.050c0.047 0.049 0.095 0.099 0.141 0.151h-0.010c0.314 0.386 0.552 0.846 0.552 1.35 0 1.323-1.093 2.375-2.627 2.506-1.28 0.109-2.451-0.474-3.336-1.061l0.625-1.8s1.238 0.556 1.769 0.724c0.417 0.132 0.973 0.008 1.086-0.275s0.128-0.484-0.275-0.757c-0.127-0.084-0.278-0.173-0.448-0.273-0.128-0.074-0.267-0.155-0.413-0.246-0.16-0.083-2.118-1.139-2.118-2.547h0.001z"></path>
<path d="M44.022 12.943v-1.854h0.445l0.554 0.992 0.53-0.992h0.527v1.854h-0.445v-0.915l-0.612 0.915-0.527-0.915v0.915h-0.472zM42.17 11.479v-0.39h1.686v0.39h-0.614v1.464h-0.451v-1.464h-0.62zM9.571 0.854l-0.956-0.158c-0.027-0.004-0.047-0.026-0.047-0.053 0-0.022 0.014-0.041 0.033-0.050l0-0c2.221-0.944 4.563-0.557 6.271 0.925 0.061 0.053 0.045 0.148-0.028 0.186-0.307 0.156-0.649 0.384-0.801 0.49-0.019 0.013-0.043 0.021-0.069 0.021-0.033 0-0.062-0.013-0.085-0.033l0 0c-1.094-1.012-3.117-1.151-4.319-1.327zM31.419 0.854l0.957-0.158c0.027-0.004 0.047-0.026 0.047-0.053 0-0.022-0.014-0.041-0.033-0.050l-0-0c-2.221-0.944-4.564-0.557-6.272 0.925-0.060 0.053-0.045 0.148 0.028 0.186 0.307 0.156 0.649 0.384 0.801 0.49 0.047 0.032 0.112 0.026 0.154-0.012 1.094-1.012 3.117-1.151 4.319-1.327zM20.552 1.668c-1.536 0-2.396-0.378-3.907-0.399-0.051-0.001-0.077-0.060-0.039-0.093 1.078-0.954 3.156-1.176 3.878-1.176 0.606 0 2.618 0.176 3.789 1.169 0.040 0.034 0.013 0.095-0.040 0.094-1.516-0.023-1.526 0.404-3.683 0.404z"></path>
<path d="M1.506 9.458h-0.934c-0.001 0-0.003 0-0.004 0-0.127 0-0.23-0.103-0.23-0.23 0-0.028 0.005-0.055 0.014-0.080l-0.001 0.002c0.102-0.275 0.237-0.667 0.254-0.893 0.017-0.216 0.010-0.396 0.003-0.558-0.014-0.328-0.026-0.588 0.173-0.951 0.163-0.298 0.342-0.538 0.525-0.781 0.23-0.305 0.464-0.617 0.676-1.062 0.163-0.34 0.268-0.824 0.38-1.342 0.104-0.477 0.213-0.984 0.38-1.432 0.347-0.934 0.47-1.267 1.318-1.406 0.83-0.136 1.777 0.126 2.739 0.393 0.551 0.153 1.107 0.307 1.649 0.387 0.341 0.051 0.687 0.096 1.030 0.14 1.441 0.184 2.847 0.364 3.729 1.021 0.104 0.078 0.104 0.227 0.026 0.329-0.33 0.429-0.605 1.193-0.658 2.112-0.038 0.66 0.123 1.482 0.42 2.498 0.172 0.586-0.132 1.22-0.334 1.642l-0.038 0.079c-0.040 0.081-0.121 0.136-0.216 0.136h-7.194c-0 0-0.001 0-0.001 0-0.126 0-0.228-0.098-0.236-0.222l-0-0.001c-0.051-1.052-0.468-2.15-1.544-2.15s-1.558 1.311-1.69 2.172c-0.018 0.115-0.117 0.202-0.235 0.202-0 0-0 0-0 0v0-0.001zM3.325 5.796c0.394 0.412 1.84 0.6 2.625-0.203 0.917-0.938 0.978-2.913 0.058-3.443-0.365-0.209-0.998-0.262-0.998-0.262-0.92 0-1.108 0.726-1.308 1.494-0.051 0.195-0.102 0.393-0.166 0.582-0.059 0.173-0.14 0.337-0.216 0.496-0.228 0.465-0.431 0.881 0.006 1.336zM7.956 6.865c0.881 0.621 2.297 0.458 2.915-0.023 0.812-0.633 0.993-2.752 0.304-3.37-0.743-0.667-1.551-0.74-2.423-0.337-0.987 0.457-1.41 3.297-0.796 3.73zM39.484 9.458h0.934c0.001 0 0.002 0 0.004 0 0.127 0 0.23-0.103 0.23-0.23 0-0.028-0.005-0.055-0.014-0.080l0.001 0.002c-0.102-0.275-0.237-0.667-0.254-0.893-0.006-0.088-0.010-0.19-0.010-0.294 0-0.093 0.003-0.185 0.009-0.277l-0.001 0.013c0.013-0.328 0.024-0.588-0.173-0.951-0.163-0.298-0.342-0.538-0.525-0.781-0.229-0.305-0.464-0.617-0.676-1.062-0.162-0.34-0.267-0.824-0.38-1.342-0.103-0.477-0.213-0.984-0.38-1.432-0.347-0.934-0.47-1.267-1.318-1.406-0.83-0.136-1.777 0.126-2.739 0.393-0.55 0.153-1.107 0.307-1.649 0.387-0.341 0.051-0.687 0.096-1.030 0.14-1.441 0.184-2.847 0.364-3.729 1.021-0.104 0.078-0.104 0.227-0.026 0.329 0.33 0.429 0.605 1.193 0.658 2.112 0.038 0.66-0.123 1.482-0.42 2.498-0.156 0.532 0.079 1.102 0.275 1.517 0.1 0.202 0.305 0.339 0.541 0.339 0.001 0 0.002 0 0.003 0h6.963c0.128 0 0.23-0.1 0.237-0.223 0.051-1.052 0.468-2.15 1.544-2.15s1.559 1.311 1.69 2.172c0.018 0.115 0.117 0.202 0.235 0.202 0 0 0 0 0 0v0-0.001zM37.664 5.796c-0.395 0.412-1.839 0.6-2.625-0.203-0.917-0.938-0.978-2.913-0.058-3.443 0.365-0.209 0.998-0.262 0.998-0.262 0.919 0 1.108 0.726 1.308 1.494 0.051 0.195 0.102 0.393 0.166 0.582l0.010 0.029c0.063 0.169 0.135 0.332 0.207 0.467 0.228 0.465 0.431 0.881-0.006 1.336zM33.033 6.865c-0.881 0.621-2.297 0.458-2.915-0.023-0.812-0.633-0.993-2.752-0.304-3.37 0.743-0.667 1.551-0.74 2.423-0.337 0.986 0.457 1.41 3.297 0.796 3.73zM18.18 9.457h0c0.106-0.001 0.196-0.068 0.231-0.163 0.168-0.468 0.758-1.786 2.064-1.786s1.895 1.317 2.063 1.786l0.001 0.002c0.034 0.094 0.124 0.162 0.23 0.162h4.697c0.001 0 0.001 0 0.002 0 0.064 0 0.116-0.052 0.116-0.116 0-0.024-0.007-0.046-0.019-0.063-0.597-0.919-0.452-1.524-0.258-2.329 0.136-0.564 0.295-1.226 0.238-2.162-0.084-1.406-0.912-2.291-2.458-2.616-0.803-0.168-1.841-0.010-2.815 0.139-0.62 0.095-1.212 0.186-1.704 0.186-0.658 0-1.338-0.109-2.002-0.216-0.959-0.154-1.884-0.303-2.661-0.109-1.498 0.372-2.24 1.148-2.515 2.698-0.103 0.804 0.068 1.416 0.227 1.984 0.214 0.768 0.404 1.456-0.128 2.432l0-0.001c-0.009 0.017-0.014 0.035-0.014 0.056 0 0.064 0.052 0.116 0.116 0.116 0.001 0 0.001 0 0.002 0h4.586zM17.509 7.262c-0.918 0.523-2.112 0.515-2.576-0.517-0.525-1.172-0.015-2.829 1.466-3.238 1.551-0.429 3.052-0.22 2.995 0.91-0.042 0.84-0.811 2.236-1.885 2.845zM26.090 6.745c-0.463 1.032-1.658 1.039-2.576 0.518-1.074-0.611-1.843-2.006-1.885-2.845-0.056-1.13 1.444-1.34 2.995-0.911 1.48 0.41 1.991 2.067 1.466 3.239z"></path>
</symbol>
<symbol id="twitter" viewBox="0 0 32 32">
<path d="M19.044 13.543l11.913-13.543h-2.824l-10.344 11.76-8.26-11.76h-9.529l12.493 17.781-12.493 14.203h2.823l10.924-12.419 8.724 12.419h9.529l-12.956-18.44zM15.177 17.939l-1.267-1.771-10.071-14.089h4.336l19.96 27.921h-4.337l-8.621-12.061z"></path>
</symbol>
<symbol id="boat" viewBox="0 0 32 32">
<path d="M16.14 0c-8.947-0.073-16.213 7.192-16.14 16.14 0.076 8.688 7.173 15.787 15.86 15.859 8.947 0.077 16.216-7.192 16.139-16.139-0.072-8.687-7.171-15.784-15.859-15.86zM11.356 7.964c1.020 1.286 1.636 2.932 1.636 4.722 0 0.004 0 0.008 0 0.012v-0.001c0 1.547-0.459 2.987-1.248 4.188h-5.547l5.157-8.923zM28.268 17.711v1.152c0 0.076-0.040 0.14-0.109 0.168-0.376 0.16-1.616 0.736-2.133 1.453-1.331 1.853-2.347 4.764-4.619 4.764h-9.48c-0.006 0-0.013 0-0.020 0-3.393 0-6.143-2.75-6.143-6.143 0-0.025 0-0.050 0-0.074l-0 0.004c0-0.087 0.075-0.16 0.163-0.16h4.493c0.155 0 0.276 0.125 0.276 0.277v0.867c0 0.461 0.373 0.836 0.836 0.836h3.408v-1.984h-2.328c1.331-1.673 2.136-3.816 2.136-6.147 0-0.007 0-0.015-0-0.022v0.001c0-2.6-0.997-4.971-2.629-6.744 0.987 0.116 1.932 0.312 2.821 0.573v-0.552c0-0.573 0.464-1.037 1.037-1.037s1.037 0.464 1.037 1.037v0 1.331c3.181 1.485 5.264 3.949 5.264 6.736 0 1.636-0.715 3.157-1.949 4.437-0.23 0.237-0.552 0.384-0.907 0.384-0 0-0 0-0.001 0h-2.407v1.98h3.020c0.651 0 1.819-1.235 2.373-1.979 0 0 0.023-0.037 0.087-0.056s5.544-1.277 5.544-1.277c0.014-0.004 0.031-0.006 0.048-0.006 0.1 0 0.18 0.080 0.181 0.18v0.001z"></path>
</symbol>
<symbol id="discord" viewBox="0 0 32 32">
<path d="M25.256 7.848c-1.589-0.718-3.438-1.284-5.369-1.606l-0.133-0.018c-0.22 0.367-0.455 0.818-0.668 1.281l-0.038 0.092c-0.916-0.138-1.973-0.217-3.049-0.217s-2.133 0.079-3.166 0.232l0.117-0.014c-0.191-0.429-0.473-0.971-0.713-1.373-1.931 0.313-3.779 0.867-5.505 1.628-3.481 4.943-4.425 9.764-3.953 14.516 1.932 1.381 4.175 2.491 6.587 3.207l0.16 0.041c0.544-0.703 1.028-1.449 1.445-2.236-0.883-0.318-1.633-0.669-2.346-1.078l0.071 0.038c0.221-0.154 0.403-0.291 0.58-0.432l-0.022 0.017c4.387 1.928 9.155 1.928 13.491 0 0.183 0.143 0.369 0.28 0.557 0.413-0.72 0.409-1.484 0.76-2.28 1.043 0.419 0.787 0.9 1.533 1.445 2.236 2.574-0.756 4.819-1.866 6.82-3.296l-0.068 0.046c0.553-5.509-0.947-10.285-3.964-14.52zM11.571 19.445c-1.317 0-2.397-1.156-2.397-2.563s1.056-2.564 2.397-2.564c1.34 0 2.42 1.156 2.397 2.564 0.001 1.407-1.057 2.563-2.397 2.563zM20.429 19.445c-1.317 0-2.397-1.156-2.397-2.563s1.057-2.564 2.397-2.564 2.421 1.156 2.397 2.564c0 1.407-1.057 2.563-2.397 2.563z"></path>
</symbol>
<symbol id="up-left-arrow" viewBox="0 0 32 32">
<path d="M8.553 6h17.332v17.334h-5.332v-8.229l-10.668 10.667-3.77-3.771 10.666-10.666h-8.229v-5.333z"></path>
</symbol>
<symbol id="sharp" viewBox="0 0 33 32">
<path d="M24.222 9.636l-14.142 14.142-1.413-1.413 14.142-14.142 1.413 1.413z"></path>
<path d="M10.080 8.222l14.142 14.142-1.413 1.413-14.142-14.142 1.413-1.413z"></path>
</symbol>
<symbol id="meta-mask" viewBox="0 0 32 32">
<path fill="#f5841f" style="fill: var(--color1, #f5841f)" d="M26.156 15.984l1.078-1.266-0.469-0.344 0.75-0.687-0.578-0.437 0.75-0.563-0.484-0.375 0.781-3.813-1.187-3.531zM26.797 4.969l-7.625 2.828h-6.359l-7.625-2.828-1.188 3.531 0.797 3.813-0.5 0.375 0.766 0.563-0.578 0.437 0.75 0.687-0.469 0.344 1.078 1.266-1.641 5.063 1.516 5.172 5.328-1.469 1.031 0.844 2.109 1.437h3.609l2.109-1.437 1.031-0.844 5.344 1.469 1.531-5.172-1.656-5.063z"></path>
<path fill="#e27625" style="fill: var(--color2, #e27625)" d="M26.797 4.969l-9.359 6.891 1.734-4.063 7.625-2.828z"></path>
<path fill="#e27625" style="fill: var(--color2, #e27625)" d="M5.188 4.969l9.281 6.953-1.656-4.125-7.625-2.828z"></path>
<path fill="#e27625" style="fill: var(--color2, #e27625)" d="M23.437 20.953l-2.5 3.781 5.344 1.469 1.531-5.172-4.375-0.078z"></path>
<path fill="#e27625" style="fill: var(--color2, #e27625)" d="M4.203 21.031l1.516 5.172 5.328-1.469-2.484-3.781-4.359 0.078z"></path>
<path fill="#e27625" style="fill: var(--color2, #e27625)" d="M10.766 14.547l-1.484 2.234 5.281 0.234-0.172-5.656-3.625 3.188z"></path>
<path fill="#e27625" style="fill: var(--color2, #e27625)" d="M21.234 14.547l-3.687-3.25-0.109 5.719 5.281-0.234-1.484-2.234z"></path>
<path fill="#e27625" style="fill: var(--color2, #e27625)" d="M11.047 24.734l3.203-1.531-2.766-2.125-0.438 3.656z"></path>
<path fill="#e27625" style="fill: var(--color2, #e27625)" d="M17.75 23.203l3.187 1.531-0.437-3.656-2.75 2.125z"></path>
<path fill="#d7c1b3" style="fill: var(--color3, #d7c1b3)" d="M20.937 24.734l-3.187-1.531 0.266 2.063-0.031 0.875 2.953-1.406z"></path>
<path fill="#d7c1b3" style="fill: var(--color3, #d7c1b3)" d="M11.047 24.734l2.969 1.406-0.016-0.875 0.25-2.063-3.203 1.531z"></path>
<path fill="#2f343b" style="fill: var(--color4, #2f343b)" d="M14.063 19.703l-2.641-0.766 1.875-0.859 0.766 1.625z"></path>
<path fill="#2f343b" style="fill: var(--color4, #2f343b)" d="M17.922 19.703l0.781-1.625 1.875 0.859-2.656 0.766z"></path>
<path fill="#cc6228" style="fill: var(--color5, #cc6228)" d="M11.047 24.734l0.469-3.781-2.953 0.078 2.484 3.703z"></path>
<path fill="#cc6228" style="fill: var(--color5, #cc6228)" d="M20.484 20.953l0.453 3.781 2.5-3.703-2.953-0.078z"></path>
<path fill="#cc6228" style="fill: var(--color5, #cc6228)" d="M22.719 16.781l-5.281 0.234 0.484 2.687 0.781-1.625 1.875 0.859 2.141-2.156z"></path>
<path fill="#cc6228" style="fill: var(--color5, #cc6228)" d="M11.422 18.937l1.875-0.859 0.766 1.625 0.5-2.687-5.281-0.234 2.141 2.156z"></path>
<path fill="#e27625" style="fill: var(--color2, #e27625)" d="M9.281 16.781l2.203 4.297-0.063-2.141-2.141-2.156z"></path>
<path fill="#e27625" style="fill: var(--color2, #e27625)" d="M20.578 18.937l-0.078 2.141 2.219-4.297-2.141 2.156z"></path>
<path fill="#e27625" style="fill: var(--color2, #e27625)" d="M14.563 17.016l-0.5 2.687 0.625 3.188 0.141-4.188-0.266-1.687z"></path>
<path fill="#e27625" style="fill: var(--color2, #e27625)" d="M17.437 17.016l-0.266 1.672 0.125 4.203 0.625-3.188-0.484-2.687z"></path>
<path fill="#f5841f" style="fill: var(--color1, #f5841f)" d="M17.922 19.703l-0.625 3.188 0.453 0.312 2.75-2.125 0.078-2.141-2.656 0.766z"></path>
<path fill="#f5841f" style="fill: var(--color1, #f5841f)" d="M11.422 18.937l0.063 2.141 2.766 2.125 0.437-0.312-0.625-3.188-2.641-0.766z"></path>
<path fill="#c0ad9e" style="fill: var(--color6, #c0ad9e)" d="M17.984 26.141l0.031-0.875-0.25-0.203h-3.547l-0.219 0.203 0.016 0.875-2.969-1.406 1.031 0.844 2.109 1.453h3.609l2.109-1.453 1.031-0.844-2.953 1.406z"></path>
<path fill="#2f343b" style="fill: var(--color4, #2f343b)" d="M17.75 23.203l-0.453-0.312h-2.609l-0.437 0.312-0.25 2.063 0.219-0.203h3.547l0.25 0.203-0.266-2.063z"></path>
<path fill="#763e1a" style="fill: var(--color7, #763e1a)" d="M27.203 12.313l0.781-3.813-1.187-3.531-9.047 6.656 3.484 2.922 4.922 1.437 1.078-1.266-0.469-0.344 0.75-0.672-0.578-0.453 0.75-0.563-0.484-0.375z"></path>
<path fill="#763e1a" style="fill: var(--color7, #763e1a)" d="M4 8.5l0.797 3.813-0.5 0.375 0.75 0.578-0.578 0.437 0.75 0.672-0.469 0.344 1.094 1.266 4.922-1.437 3.484-2.922-9.063-6.656-1.188 3.531z"></path>
<path fill="#f5841f" style="fill: var(--color1, #f5841f)" d="M26.156 15.984l-4.922-1.437 1.484 2.234-2.219 4.297 2.937-0.047h4.375l-1.656-5.047z"></path>
<path fill="#f5841f" style="fill: var(--color1, #f5841f)" d="M10.766 14.547l-4.922 1.437-1.641 5.047h4.359l2.922 0.047-2.203-4.297 1.484-2.234z"></path>
<path fill="#f5841f" style="fill: var(--color1, #f5841f)" d="M17.437 17.016l0.313-5.391 1.422-3.828h-6.359l1.438 3.828 0.313 5.391 0.125 1.687v4.188h2.609l0.016-4.188 0.125-1.687z"></path>
</symbol>
<symbol id="discord-color" viewBox="0 0 32 32">
<path fill="#5a65f2" style="fill: var(--color8, #5a65f2)" d="M25.256 7.848c-1.589-0.718-3.438-1.284-5.369-1.606l-0.133-0.018c-0.22 0.367-0.455 0.818-0.668 1.281l-0.038 0.092c-0.916-0.138-1.973-0.217-3.049-0.217s-2.133 0.079-3.166 0.232l0.117-0.014c-0.191-0.429-0.473-0.971-0.713-1.373-1.931 0.313-3.779 0.867-5.505 1.628-3.481 4.943-4.425 9.764-3.953 14.516 1.932 1.381 4.175 2.491 6.587 3.207l0.16 0.041c0.544-0.703 1.028-1.449 1.445-2.236-0.883-0.318-1.633-0.669-2.346-1.078l0.071 0.038c0.221-0.154 0.403-0.291 0.58-0.432l-0.022 0.017c4.387 1.928 9.155 1.928 13.491 0 0.183 0.143 0.369 0.28 0.557 0.413-0.72 0.409-1.484 0.76-2.28 1.043 0.419 0.787 0.9 1.533 1.445 2.236 2.574-0.756 4.819-1.866 6.82-3.296l-0.068 0.046c0.553-5.509-0.947-10.285-3.964-14.52zM11.571 19.445c-1.317 0-2.397-1.156-2.397-2.563s1.056-2.564 2.397-2.564c1.34 0 2.42 1.156 2.397 2.564 0.001 1.407-1.057 2.563-2.397 2.563zM20.429 19.445c-1.317 0-2.397-1.156-2.397-2.563s1.057-2.564 2.397-2.564 2.421 1.156 2.397 2.564c0 1.407-1.057 2.563-2.397 2.563z"></path>
</symbol>
</defs>
</svg>
